<?xml version="1.0" encoding="utf-8"?>
<!-- Generator: Adobe Illustrator 23.0.1, SVG Export Plug-In . SVG Version: 6.00 Build 0)  -->
<svg version="1.1" id="Capa_1" xmlns="http://www.w3.org/2000/svg" xmlns:xlink="http://www.w3.org/1999/xlink" x="0px" y="0px"
	 viewBox="0 0 512 512" style="enable-background:new 0 0 512 512;" xml:space="preserve">
<style type="text/css">
	.st0{fill:#80E9FC;}
</style>
<g>
	<g>
		<path class="st0" d="M484,120.9h-59.5c-5.5,0-10,4.5-10,10v8.6h-27.9c-5.5,0-10,4.5-10,10v2.9c-16.3-1.4-21.6-4.5-36.5-13.1
			c-11.5-6.6-28.8-16.6-60.1-30.7c-0.1-0.1-0.3-0.1-0.4-0.2c-10.2-4-36.8-11.9-65.3,1L174,123.9L140.1,90c-3.9-3.9-10.2-3.9-14.1,0
			L14.6,201.3c-3.6,3.6-4.3,9.9,0,14.1l190.3,190.3c3,3,10.2,4,14.1,0l101.7-101.7c2.6,0.2,5.4,0.4,8.2,0.4
			c26.1,0,49.2-17.9,62.5-37.5H484c5.5,0,10-4.5,10-10V130.9C494,125.4,489.5,120.9,484,120.9z M133,111.2l22.8,22.8
			c-6.8,4.2-14.6,6.4-22.8,6.4c-8.2,0-16-2.2-22.8-6.4L133,111.2z M58.6,231.2l-22.8-22.8l22.8-22.8c4.2,6.8,6.4,14.6,6.4,22.8
			C65.1,216.6,62.8,224.4,58.6,231.2z M212,384.5l-22.8-22.8c13.9-8.6,31.7-8.6,45.6,0L212,384.5z M249.2,347.3
			c-22.1-16-52.3-16-74.4,0L73,245.6c7.8-10.7,12-23.6,12-37.2c0-13.6-4.2-26.5-12-37.2l22.8-22.8c10.7,7.8,23.6,12,37.2,12
			c13.6,0,26.5-4.2,37.2-12l21.6,21.6c-4.7,0.7-9.2,2.2-13.5,4.6c-7.2,4-12.8,10-16.3,17.2c-11.3,2.1-21.7,7.6-29.9,15.7
			c-22.2,22.2-22.2,58.4,0,80.6c11.1,11.1,25.7,16.7,40.3,16.7c14.6,0,29.2-5.6,40.3-16.7c7.2-7.2,12.3-16.1,14.8-25.8l33.8,11.5
			c-3.8,17.6,0.1,36.1,10.6,50.7L249.2,347.3z M188.4,249c0.1,0,0.2,0.1,0.3,0.1l20,6.8c-1.5,6.8-4.9,13.1-10,18.1
			c-14.4,14.4-37.9,14.4-52.3,0c-14.4-14.4-14.4-37.9,0-52.3c3.5-3.5,7.6-6.2,12.1-8C160.3,229,171.3,242.7,188.4,249z M286.4,310.1
			c-3.9-6.3-6-13.5-6.4-20.8c4.8,3.5,10.6,6.9,17.6,9.5L286.4,310.1z M376.6,253c-9.5,15.5-27.9,31.4-47.7,31.4
			c-3.7,0-7.2-0.3-10.4-0.7c0,0,0,0,0,0c-21.6-3.1-33.2-15.4-37-20.3c-0.2-0.3-1.1-1.4-1.2-1.6c-1.2-2.1-3.1-3.8-5.5-4.6l-79.5-27
			c-12.7-4.8-19.4-15.6-16.3-26.5c0,0,0,0,0,0c0,0,0,0,0,0c1.4-5,4.7-9.1,9.2-11.7c4.5-2.5,9.7-3.1,14.7-1.8l89.6,28.4
			c5.3,1.7,10.9-1.2,12.6-6.5c1.7-5.3-1.2-10.9-6.5-12.6L227.2,177l-0.6-0.6c0,0,0,0,0,0l-36.9-36.9l31.7-11.4
			c0.1,0,0.2-0.1,0.3-0.1c0,0,0.1,0,0.1,0c0.1-0.1,0.3-0.1,0.4-0.2c21.4-9.9,41.8-4,49.8-0.8c30.2,13.6,46.3,22.9,58.1,29.7
			c16.4,9.4,24.2,14,46.5,15.8V253z M414.5,247h-17.9v-87.4h17.9V247z M474,247h-39.5V140.9H474V247z"/>
	</g>
</g>
</svg>
