<?xml version="1.0" encoding="utf-8"?>
<!-- Generator: Adobe Illustrator 23.0.1, SVG Export Plug-In . SVG Version: 6.00 Build 0)  -->
<svg version="1.1" id="图层_1" xmlns="http://www.w3.org/2000/svg" xmlns:xlink="http://www.w3.org/1999/xlink" x="0px" y="0px"
	 viewBox="0 0 511 511" style="enable-background:new 0 0 511 511;" xml:space="preserve">
<style type="text/css">
	.st0{fill:#80E9FC;}
</style>
<path class="st0" d="M491.4,173.2h-38.6l-15.8-20c-2.6-3.2-7.3-3.8-10.5-1.2c-3.2,2.6-3.8,7.3-1.2,10.5l8.3,10.5l-59.6-0.5
	c-6.6-8.2-27.1-33.8-34-42.3c3.1-2.8,10.9-18.7,30.2-18.5c9.6,0.1,18.5,4.4,24.4,11.9l10.8,13.6c2.6,3.2,7.3,3.8,10.5,1.2
	c3.2-2.6,3.8-7.3,1.2-10.5l-10.8-13.6c-8.8-11.2-22.1-17.6-36.4-17.6c-26.1,0-37.9,20.1-39.6,21.5l-27.7-34.4
	c-24.2-30.2-70.1-30.1-94.3,0l-27.6,34.4l-3.2-4.1c-18.4-23.3-53.6-23.5-72.3-0.6l-48.6,59.6h-37C8.8,173.2,0,182,0,192.8v10.4
	c0,10.8,8.8,19.6,19.6,19.6h8.1l40.6,141.6c1.1,4,5.3,6.3,9.3,5.1c4-1.1,6.3-5.3,5.1-9.3L43.3,222.8h424.4l-52.1,181.5
	c-2.6,9.1-9.3,16.5-17.8,20.3c-6-26.4-29.7-45.5-57-45.5c-28.5,0-52.7,20.5-57.6,48.1h-55.4c-5-27.9-29.4-48.1-57.6-48.1h0
	c-27.3,0-51,19.1-57,45.5c-8.5-3.7-15.2-11.1-17.8-20.3L90,385.4c-1.1-4-5.3-6.3-9.3-5.1s-6.3,5.3-5.1,9.3l5.4,18.9
	c4.3,15.1,16.1,26.9,30.7,31.6c1.3,31.2,27,56.1,58.5,56.1c30.7,0,56-23.8,58.3-54h53.9c2.3,30.1,27.6,54,58.3,54
	c31.5,0,57.2-25,58.5-56.1c14.7-4.7,26.4-16.5,30.7-31.6l53.3-185.6h8.1c10.8,0,19.6-8.8,19.6-19.6v-10.4
	C511,182,502.2,173.2,491.4,173.2z M170.2,481.1c-25,0-45.1-21.2-43.4-46.5c0,0,0,0,0,0c1.5-22.8,20.6-40.6,43.4-40.6h0
	c23.9,0,43.6,19.4,43.6,43.6C213.8,461.6,194.2,481.1,170.2,481.1z M340.8,481.1c-24,0-43.6-19.5-43.6-43.6
	c0-24.1,19.6-43.6,43.6-43.6c23.9,0,43.6,19.5,43.6,43.6C384.4,461.6,364.8,481.1,340.8,481.1z M220,93.2
	c18.2-22.7,52.8-22.7,70.9,0c15.8,19.7,49.4,61.5,64.2,79.9H155.8C161.6,166,213.6,101.2,220,93.2z M116.8,123.1
	c6-7.4,15-11.7,24.6-11.5c9.6,0.1,18.4,4.4,24.4,11.9l5.4,6.8l-24.7,30.8l-9,11.3L77,171.9L116.8,123.1z M496,203.2
	c0,2.6-2.1,4.6-4.6,4.6c-21.6,0-448.8,0-471.8,0c-2.6,0-4.6-2.1-4.6-4.6v-10.4c0-2.6,2.1-4.6,4.6-4.6h471.8c2.6,0,4.6,2.1,4.6,4.6
	V203.2z"/>
<path class="st0" d="M293.1,251.6c-1.3-2.4-3.8-3.9-6.6-3.9h-43c-2.7,0-5.3,1.5-6.6,3.9l-34.3,63.3c-1.3,2.3-1.2,5.1,0.2,7.4
	c1.3,2.3,3.8,3.6,6.4,3.6h0l27.7,0l-19,46.2c-3.1,7.5,6.5,13.9,12.2,8.1l76.9-77.2c2.1-2.1,2.8-5.4,1.6-8.2
	c-1.2-2.8-3.9-4.6-6.9-4.6h-29.5l20.4-31C294.2,256.9,294.4,254,293.1,251.6z M252.1,293.6c-1.5,2.3-1.6,5.2-0.3,7.7
	c1.3,2.4,3.8,3.9,6.6,3.9h25.3L246.1,343l9-21.8c1-2.3,0.7-4.9-0.7-7c-1.4-2.1-3.7-3.3-6.2-3.3c0,0,0,0,0,0l-26.3,0l26.1-48.3h24.6
	L252.1,293.6z"/>
<path class="st0" d="M166.7,87.6c6.6,0,10-8,5.3-12.8L149.1,52c-2.9-2.9-7.7-2.9-10.6,0c-2.9,2.9-2.9,7.7,0,10.6
	C161.2,84.2,161.2,87.6,166.7,87.6z"/>
<path class="st0" d="M198.7,55.9c1.5,3.9,5.8,5.8,9.7,4.3c3.9-1.5,5.8-5.8,4.3-9.7l-11.5-29.7c-1.5-3.9-5.8-5.8-9.7-4.3
	c-3.9,1.5-5.8,5.8-4.3,9.7L198.7,55.9z"/>
<path class="st0" d="M349.6,85.4l22.9-22.9c2.9-2.9,2.9-7.7,0-10.6c-2.9-2.9-7.7-2.9-10.6,0l-22.9,22.9c-2.9,2.9-2.9,7.7,0,10.6
	C342,88.4,346.7,88.4,349.6,85.4z"/>
<path class="st0" d="M305.3,60.7c3,0,5.8-1.8,7-4.8l11.5-29.7c1.5-3.9-0.4-8.2-4.3-9.7c-3.9-1.5-8.2,0.4-9.7,4.3l-11.5,29.7
	C296.4,55.4,300.1,60.7,305.3,60.7z"/>
<path class="st0" d="M344.7,430.1h-7.8c-4.1,0-7.5,3.3-7.5,7.5c0,4.1,3.4,7.5,7.5,7.5h7.8c4.1,0,7.5-3.4,7.5-7.5
	C352.2,433.5,348.8,430.1,344.7,430.1z"/>
<path class="st0" d="M174.1,430.1h-7.8c-4.1,0-7.5,3.3-7.5,7.5c0,4.1,3.3,7.5,7.5,7.5h7.8c4.1,0,7.5-3.4,7.5-7.5
	C181.6,433.5,178.2,430.1,174.1,430.1z"/>
</svg>
